<?xml version="1.0" encoding="UTF-8"?>
<svg width="103px" height="49px" viewBox="0 0 103 49" version="1.1" xmlns="http://www.w3.org/2000/svg" xmlns:xlink="http://www.w3.org/1999/xlink">
    <!-- Generator: Sketch 64 (93537) - https://sketch.com -->
    <title>Logo/Secondary</title>
    <desc>Created with Sketch.</desc>
    <defs>
        <path d="M12.2945649,0.273837288 L12.2945649,1.24270271 L11.2531273,1.44918741 C9.02929345,1.93362011 9.23961741,4.1439234 9.86581642,7.11091564 L15.3552399,34.1733758 L19.3825778,12.6325631 L17.9255832,5.247494 C17.3687498,2.62169164 17.1581076,1.79322317 15.7707968,1.44918741 L14.867772,1.24270271 L14.867772,0.273837288 L27.5807575,0.273837288 L27.5807575,1.24270271 L26.0518519,1.51780483 C23.7611981,1.93362011 24.1073894,4.41617964 24.6616773,7.11091564 L29.9433224,34.1733758 L35.1533746,8.56168409 C36.1254467,3.24367541 35.6405243,1.93362011 33.5551034,1.51780483 L32.0952451,1.24270271 L32.0952451,0.273837288 L40.9196239,0.273837288 L40.9196239,1.24270271 L39.9475517,1.58673847 C38.557059,2.07117118 38.2111859,3.38122647 37.2387955,7.93938411 L28.7606081,48.1229508 L26.9548767,48.1229508 L20.4240155,16.7777514 L14.5190351,48.1229508 L12.2255176,48.1229508 L3.40400258,6.62648293 C2.50097778,2.55307421 2.29033563,1.8621568 0.972072153,1.51780483 L0,1.24270271 L0,0.273837288 L12.2945649,0.273837288 Z M84.4748201,0.27320487 L84.4748201,1.24207029 L82.9459145,1.65788557 C81.5554218,2.00192133 81.0711358,2.6239051 81.0711358,4.55626038 L81.0711358,36.8674794 C81.0711358,44.2550782 77.3209418,48.1223184 71.5543744,48.1223184 C66.3417767,48.1223184 63.2836472,43.9110424 63.3558765,39.2839511 C63.425242,35.6949751 66.0646327,33.9001709 68.2194191,34.1755893 C69.745461,34.3817577 71.2746849,35.4884904 71.0665882,37.9024325 C70.8588098,41.3567034 67.1060704,41.2191523 66.9676575,43.3576761 C66.8289264,44.6708935 68.5656105,46.6029325 70.7897625,46.6029325 C74.5343468,46.6029325 74.6730351,42.05714 74.6781717,38.3925176 L74.6783693,4.48732674 C74.6783693,2.55244179 74.0553521,2.00192133 72.523901,1.65788557 L70.7897625,1.24207029 L70.7897625,0.27320487 L84.4748201,0.27320487 Z M50.9197167,0 C54.7418217,0 55.5061154,2.48287574 57.1043866,2.48287574 C58.0070932,2.48287574 58.632974,1.794488 58.9823473,0.275418335 L59.8156883,0.275418335 L59.8156883,16.0166355 L58.7717051,16.0166355 C57.9380458,8.07598654 55.8551705,1.51938588 50.8532149,1.51938588 C47.3798468,1.51938588 46.7539659,4.97112703 46.7539659,7.31866517 C46.7539659,17.6046388 62.2450732,21.1253136 62.2450732,35.4875418 C62.2450732,42.8036773 58.2180535,48.121686 52.0330655,48.121686 C48.0031821,48.121686 46.615553,45.3577001 45.2941077,45.3577001 C44.5298139,45.3577001 43.6267891,45.5670307 42.931861,47.8462676 L42.0978835,47.8462676 L42.0978835,32.1047343 L43.1393212,32.1047343 C43.9729805,41.0088731 47.3076175,46.6019839 51.9636999,46.6019839 C55.088013,46.6019839 57.2427995,43.7696968 57.2427995,38.6638646 C57.2427995,27.8909286 41.7520104,23.2666832 41.7520104,11.3234565 C41.7520104,4.9021934 45.0172819,0 50.9197167,0 Z" id="path-1"></path>
        <path d="M103,41.459773 L103,48.1229508 L91.1438849,48.1229508 L91.1438849,47.5886976 L102.508601,47.5886976 L102.508601,41.459773 L103,41.459773 Z M103,32.5755359 L103,33.315889 L91.1438849,33.315889 L91.1438849,32.5755359 L103,32.5755359 Z M91.1438849,15.5474149 L103,20.1424148 L103,20.5767924 L91.1438849,25.172005 L91.1438849,24.5702156 L102.250619,20.3427986 L91.1438849,16.1153816 L91.1438849,15.5474149 Z M103,0 L103,7.4035309 L91.1438849,7.4035309 L91.1438849,0.0841627501 L91.6352843,0.0841627501 L91.6352843,6.86377285 L96.665282,6.86377285 L96.665282,0.809422367 L97.1564657,0.809422367 L97.1564657,6.86377285 L102.508601,6.86377285 L102.508601,0 L103,0 Z" id="path-3"></path>
    </defs>
    <g id="Symbols" stroke="none" stroke-width="1" fill="none" fill-rule="evenodd">
        <g id="header-bg" transform="translate(-195.000000, -21.000000)">
            <g id="header">
                <g id="Logo/Secondary" transform="translate(195.000000, 21.672131)">
                    <g id="WSJ-" stroke-width="1" fill-rule="evenodd">
                        <mask id="mask-2" fill="white">
                            <use xlink:href="#path-1"></use>
                        </mask>
                        <use id="Mask" fill="#ADABE6" xlink:href="#path-1"></use>
                        <g id="Palette/TL-White" mask="url(#mask-2)" fill="#FFFFFF">
                            <rect id="Colour" x="0" y="0" width="174.877698" height="74.775662"></rect>
                        </g>
                    </g>
                    <mask id="mask-4" fill="white">
                        <use xlink:href="#path-3"></use>
                    </mask>
                    <use id="Mask" fill="#0A0B09" fill-rule="evenodd" xlink:href="#path-3"></use>
                    <g id="Palette/TL-White" mask="url(#mask-4)" fill="#FFFFFF" fill-rule="evenodd">
                        <rect id="Colour" x="0" y="0" width="174.877698" height="74.775662"></rect>
                    </g>
                </g>
            </g>
        </g>
    </g>
</svg>